0
SECTION
2
HEADER
9
$ACADVER
1
AC1009
0
ENDSEC
0
SECTION
2
BLOCKS
0
BLOCK
8
0
2
FRAME
70
0
10
0
20
0
30
0
0
LINE
8
0
10
0
20
0
30
0
11
420
21
0
31
0
0
LINE
8
0
10
420
20
0
30
0
11
420
21
297
31
0
0
LINE
8
0
10
420
20
297
30
0
11
0
21
297
31
0
0
LINE
8
0
10
0
20
297
30
0
11
0
21
0
31
0
0
ENDBLK
0
BLOCK
8
0
2
FRONT_NEW
70
0
10
0
20
0
30
0
0
LINE
8
0
10
0
20
0
30
0
11
100
21
0
31
0
0
LINE
8
0
10
100
20
0
30
0
11
100
21
200
31
0
0
LINE
8
0
10
100
20
200
30
0
11
0
21
200
31
0
0
LINE
8
0
10
0
20
200
30
0
11
0
21
0
31
0
0
LINE
8
0
10
20
20
0
30
0
11
20
21
200
31
0
0
LINE
8
0
10
40
20
0
30
0
11
40
21
200
31
0
0
LINE
8
0
10
60
20
0
30
0
11
60
21
200
31
0
0
LINE
8
0
10
80
20
0
30
0
11
80
21
200
31
0
0
LINE
8
0
10
20
20
102.772
30
0
11
80
21
102.772
31
0
0
LINE
8
0
10
20
20
100.772
30
0
11
20
21
102.772
31
0
0
LINE
8
0
10
80
20
100.772
30
0
11
80
21
102.772
31
0
0
ENDBLK
0
BLOCK
8
0
2
SECTION_NEW
70
0
10
0
20
0
30
0
0
LINE
8
0
10
0
20
0
30
0
11
60
21
0
31
0
0
LINE
8
0
10
60
20
0
30
0
11
60
21
200
31
0
0
LINE
8
0
10
60
20
200
30
0
11
0
21
200
31
0
0
LINE
8
0
10
0
20
200
30
0
11
0
21
0
31
0
0
LINE
8
0
10
0
20
20
30
0
11
60
21
20
31
0
0
LINE
8
0
10
0
20
40
30
0
11
60
21
40
31
0
0
LINE
8
0
10
0
20
60
30
0
11
60
21
60
31
0
0
LINE
8
0
10
0
20
100
30
0
11
60
21
100
31
0
0
LINE
8
0
10
0
20
120
30
0
11
60
21
120
31
0
0
LINE
8
0
10
0
20
140
30
0
11
60
21
140
31
0
0
LINE
8
0
10
0
20
160
30
0
11
60
21
160
31
0
0
LINE
8
0
10
0
20
180
30
0
11
60
21
180
31
0
0
LINE
8
0
10
5
20
82.772
30
0
11
55
21
82.772
31
0
0
LINE
8
0
10
5
20
86.772
30
0
11
55
21
86.772
31
0
0
LINE
8
0
10
5
20
82.772
30
0
11
5
21
86.772
31
0
0
LINE
8
0
10
55
20
82.772
30
0
11
55
21
86.772
31
0
0
ENDBLK
0
ENDSEC
0
SECTION
2
ENTITIES
0
INSERT
8
0
2
FRAME
10
0
20
0
30
0
0
INSERT
8
0
2
FRONT_NEW
10
20
20
40
30
0
0
INSERT
8
0
2
SECTION_NEW
10
170
20
40
30
0
0
LINE
8
0
10
300
20
40
30
0
11
350
21
40
31
0
0
LINE
8
0
10
350
20
40
30
0
11
350
21
240
31
0
0
LINE
8
0
10
350
20
240
30
0
11
300
21
240
31
0
0
LINE
8
0
10
300
20
240
30
0
11
300
21
40
31
0
0
LINE
8
0
10
300
20
70
30
0
11
350
21
70
31
0
0
LINE
8
0
10
300
20
100
30
0
11
350
21
100
31
0
0
LINE
8
0
10
300
20
130
30
0
11
350
21
130
31
0
0
LINE
8
0
10
300
20
160
30
0
11
350
21
160
31
0
0
LINE
8
0
10
300
20
190
30
0
11
350
21
190
31
0
0
LINE
8
0
10
300
20
220
30
0
11
350
21
220
31
0
0
ENDSEC
0
EOF
